<svg xmlns="http://www.w3.org/2000/svg" width="146" height="46" viewBox="0 0 146 46" fill="none"><path d="M0 20.2833H3.91635L12.2689 32.3796L20.5869 20.2833H24.5032V44.6149H19.8937V29.0427L13.8632 37.6282H10.64L4.60952 29.0427V44.6149H0V20.2833Z" fill="#1D2A38"></path><path d="M43.8615 35.2646C43.8615 35.9134 43.8037 36.6318 43.6882 37.4197H31.4886C31.6965 38.5552 32.1817 39.4357 32.9442 40.0614C33.7298 40.6871 34.654 40.9999 35.7169 40.9999C37.3342 40.9999 38.6743 40.3858 39.7372 39.1576L42.4752 42.1122C41.6896 42.9928 40.7192 43.6995 39.5639 44.2325C38.4317 44.7655 37.1725 45.032 35.7862 45.032C34.1457 45.032 32.6554 44.6612 31.3153 43.9197C29.9983 43.155 28.9585 42.1006 28.1961 40.7566C27.4336 39.3894 27.0524 37.8368 27.0524 36.0988C27.0524 34.3609 27.4336 32.8199 28.1961 31.4758C28.9817 30.1086 30.0329 29.0543 31.3499 28.3127C32.667 27.548 34.111 27.1657 35.6822 27.1657C37.184 27.1657 38.5588 27.5249 39.8065 28.2432C41.0542 28.9384 42.0362 29.9117 42.7524 31.163C43.4918 32.3912 43.8615 33.7584 43.8615 35.2646ZM39.4599 33.9785C39.252 33.1443 38.813 32.4607 38.1429 31.9277C37.4729 31.3716 36.6411 31.0935 35.6475 31.0935C34.6309 31.0935 33.7991 31.36 33.1522 31.8929C32.5052 32.4259 32.0316 33.1211 31.7312 33.9785H39.4599Z" fill="#1D2A38"></path><path d="M45.1277 36.0988C45.1277 34.3145 45.4859 32.7503 46.2021 31.4063C46.9415 30.0391 47.9119 28.9963 49.1134 28.278C50.3149 27.5364 51.6203 27.1657 53.0298 27.1657C55.2479 27.1657 56.9692 27.9304 58.1938 29.4598V19.032H62.5261V44.6149H58.1938V42.6336C57.5931 43.4215 56.8768 44.024 56.045 44.4411C55.2363 44.835 54.2312 45.032 53.0298 45.032C51.6203 45.032 50.3149 44.6728 49.1134 43.9544C47.9119 43.2129 46.9415 42.1701 46.2021 40.8261C45.4859 39.4589 45.1277 37.8831 45.1277 36.0988ZM49.4947 36.0988C49.4947 37.4429 49.899 38.5552 50.7077 39.4357C51.5395 40.3163 52.6254 40.7566 53.9655 40.7566C55.3287 40.7566 56.4147 40.3279 57.2234 39.4705C58.0321 38.5899 58.4364 37.466 58.4364 36.0988C58.4364 34.7316 58.0321 33.6193 57.2234 32.7619C56.4147 31.8814 55.3287 31.4411 53.9655 31.4411C52.6254 31.4411 51.5395 31.8814 50.7077 32.7619C49.899 33.6193 49.4947 34.7316 49.4947 36.0988Z" fill="#1D2A38"></path><path d="M65.8328 27.5828H70.1997V44.6149H65.8328V27.5828ZM68.0163 25.2887C67.2769 25.2887 66.6415 25.0222 66.1101 24.4892C65.5786 23.9562 65.3129 23.319 65.3129 22.5774C65.3129 21.8359 65.5786 21.1987 66.1101 20.6657C66.6415 20.1327 67.2769 19.8662 68.0163 19.8662C68.7325 19.8662 69.3564 20.1327 69.8878 20.6657C70.4192 21.1987 70.6849 21.8359 70.6849 22.5774C70.6849 23.319 70.4192 23.9562 69.8878 24.4892C69.3564 25.0222 68.7325 25.2887 68.0163 25.2887Z" fill="#1D2A38"></path><path d="M73.5143 19.032H77.8466V44.6149H73.5143V19.032Z" fill="#1D2A38"></path><path d="M88.1694 45.032C86.76 45.032 85.443 44.6728 84.2184 43.9544C82.9938 43.2129 82.0003 42.1701 81.2378 40.8261C80.4984 39.4589 80.1287 37.8831 80.1287 36.0988C80.1287 34.2913 80.4984 32.7156 81.2378 31.3716C82.0003 30.0275 82.9938 28.9963 84.2184 28.278C85.443 27.5364 86.76 27.1657 88.1694 27.1657C89.3016 27.1657 90.2951 27.3858 91.15 27.8261C92.028 28.2664 92.6865 28.8341 93.1255 29.5293V27.5828H97.4924V44.6149H93.1255V42.5988C92.6865 43.3172 92.028 43.9081 91.15 44.3716C90.2951 44.8118 89.3016 45.032 88.1694 45.032ZM88.9319 40.7913C90.2027 40.7913 91.2655 40.3511 92.1204 39.4705C92.9753 38.5899 93.4027 37.466 93.4027 36.0988C93.4027 34.7085 92.9753 33.5846 92.1204 32.7272C91.2655 31.8466 90.2027 31.4063 88.9319 31.4063C87.6842 31.4063 86.6329 31.835 85.778 32.6924C84.9231 33.5266 84.4956 34.6621 84.4956 36.0988C84.4956 37.5124 84.9231 38.6478 85.778 39.5052C86.6329 40.3626 87.6842 40.7913 88.9319 40.7913Z" fill="#1D2A38"></path><path d="M99.8666 42.0774L107.041 31.6149H100.005V27.5828H113.626V29.7379L106.174 40.5133H114.042V44.6149H99.8666V42.0774Z" fill="#1D2A38"></path><path d="M122.831 45.032C121.422 45.032 120.105 44.6728 118.88 43.9544C117.655 43.2129 116.662 42.1701 115.899 40.8261C115.16 39.4589 114.79 37.8831 114.79 36.0988C114.79 34.2913 115.16 32.7156 115.899 31.3716C116.662 30.0275 117.655 28.9963 118.88 28.278C120.105 27.5364 121.422 27.1657 122.831 27.1657C123.963 27.1657 124.957 27.3858 125.812 27.8261C126.69 28.2664 127.348 28.8341 127.787 29.5293V27.5828H132.154V44.6149H127.787V42.5988C127.348 43.3172 126.69 43.9081 125.812 44.3716C124.957 44.8118 123.963 45.032 122.831 45.032ZM123.593 40.7913C124.864 40.7913 125.927 40.3511 126.782 39.4705C127.637 38.5899 128.064 37.466 128.064 36.0988C128.064 34.7085 127.637 33.5846 126.782 32.7272C125.927 31.8466 124.864 31.4063 123.593 31.4063C122.346 31.4063 121.294 31.835 120.44 32.6924C119.585 33.5266 119.157 34.6621 119.157 36.0988C119.157 37.5124 119.585 38.6478 120.44 39.5052C121.294 40.3626 122.346 40.7913 123.593 40.7913Z" fill="#1D2A38"></path><path d="M135.187 27.5828H139.172L139.346 30.4331C139.923 29.2976 140.605 28.4749 141.39 27.9651C142.176 27.4322 143.1 27.1657 144.163 27.1657C144.833 27.1657 145.445 27.2468 146 27.409V31.8582C145.33 31.6728 144.683 31.5801 144.059 31.5801C143.297 31.5801 142.557 31.8234 141.841 32.3101C141.148 32.7967 140.582 33.4571 140.143 34.2913C139.727 35.1024 139.519 35.983 139.519 36.9331V44.6149H135.187V27.5828Z" fill="#1D2A38"></path><g clip-path="url(#clip0_268_1010)"><path d="M94.4708 0C96.1758 0.0512953 100.271 0.530052 100.145 3.86995V8.52073H104.695V13.4793H100.145V18.1301H96.9131H95.1217V18.1528C95.1217 21.1394 97.9499 21.8518 99.845 22H101.239C102.04 22 102.823 21.9088 103.578 21.7378C108.111 20.6891 111.492 16.6653 111.492 11.8606V0H94.4708Z" fill="url(#paint0_linear_268_1010)"></path><path d="M95.1217 18.1528V18.1301H95.1332V13.4793H90.2832V8.52073H95.1332V3.86995H98.3819H100.145C100.271 0.524352 96.1758 0.0512953 94.4708 0H93.7393C92.9789 0 92.2359 0.0797927 91.5216 0.239378C86.9308 1.24249 83.492 5.29482 83.492 10.1394V22H99.8508C97.9499 21.8575 95.1217 21.1394 95.1217 18.1528Z" fill="url(#paint1_linear_268_1010)"></path><path d="M103.578 21.7379C102.829 21.9089 102.045 22.0001 101.239 22.0001H99.8507C97.9499 21.8576 95.1274 21.1395 95.1274 18.1529V18.1301H96.9131C97.4373 22.0628 103.578 21.7379 103.578 21.7379Z" fill="url(#paint2_linear_268_1010)"></path><path d="M100.145 3.86995H98.3819C97.9038 -0.11399 91.5216 0.239378 91.5216 0.239378C92.2359 0.0797927 92.9789 0 93.7393 0H94.4708C96.1758 0.0512953 100.271 0.530052 100.145 3.86995Z" fill="url(#paint3_linear_268_1010)"></path></g><defs><linearGradient id="paint0_linear_268_1010" x1="102.922" y1="-2.34233" x2="103.673" y2="27.7961" gradientUnits="userSpaceOnUse"><stop stop-color="#D1E146"></stop><stop offset="1" stop-color="#3EB44A"></stop></linearGradient><linearGradient id="paint1_linear_268_1010" x1="91.9669" y1="21.5944" x2="91.5914" y2="-1.27842" gradientUnits="userSpaceOnUse"><stop stop-color="#D0E746"></stop><stop offset="1" stop-color="#3EB44A"></stop></linearGradient><linearGradient id="paint2_linear_268_1010" x1="104.319" y1="20.1449" x2="95.8647" y2="20.0293" gradientUnits="userSpaceOnUse"><stop stop-color="#82C341"></stop><stop offset="1" stop-color="#12AA4B" stop-opacity="0.8"></stop></linearGradient><linearGradient id="paint3_linear_268_1010" x1="89.8762" y1="1.93524" x2="98.5013" y2="1.93524" gradientUnits="userSpaceOnUse"><stop stop-color="#82C341"></stop><stop offset="1" stop-color="#12AA4B" stop-opacity="0.8"></stop></linearGradient><clipPath id="clip0_268_1010"><rect width="28" height="22" fill="white" transform="translate(83.492)"></rect></clipPath></defs></svg>